<svg width="16" height="16" viewBox="0 0 16 16" fill="none" xmlns="http://www.w3.org/2000/svg">
<path d="M8 15.0312C7.98843 15.0112 7.97667 14.9908 7.96475 14.9701C7.68831 14.4891 7.31986 13.8139 6.95185 13.0372C6.20616 11.4633 5.5 9.54954 5.5 8C5.5 6.45046 6.20616 4.53668 6.95185 2.96285C7.31986 2.18614 7.68831 1.5109 7.96475 1.02995C7.97667 1.00919 7.98843 0.988808 8 0.968796C8.01157 0.988808 8.02333 1.00919 8.03525 1.02995C8.31169 1.5109 8.68014 2.18614 9.04815 2.96285C9.79384 4.53668 10.5 6.45046 10.5 8C10.5 9.54954 9.79384 11.4633 9.04815 13.0372C8.68014 13.8139 8.31169 14.4891 8.03525 14.9701C8.02333 14.9908 8.01157 15.0112 8 15.0312Z" stroke="black"/>
<path d="M4 1C4 1 2 4.66336 2 8C2 11.3366 4 15 4 15" stroke="black" stroke-linecap="round"/>
<path d="M12 1C12 1 14 4.66336 14 8C14 11.3366 12 15 12 15" stroke="black" stroke-linecap="round"/>
<circle cx="8" cy="8" r="1" fill="black"/>
</svg>
